<svg width="1138" height="620" viewBox="0 0 1138 620" fill="none" xmlns="http://www.w3.org/2000/svg">
<rect width="1138" height="620" rx="100" fill="#010101"/>
<path d="M630.885 120.368C691.648 165.921 757.005 258.284 781.002 307.851C804.999 258.288 870.354 165.92 931.119 120.368C974.962 87.4981 1046 62.0656 1046 142.993C1046 159.155 1036.72 278.765 1031.28 298.183C1012.36 365.694 943.423 382.913 882.102 372.492C989.289 390.709 1016.56 451.051 957.67 511.393C845.831 625.995 796.925 482.639 784.388 445.906C782.091 439.172 781.016 436.022 781 438.701C780.984 436.022 779.909 439.172 777.612 445.906C765.08 482.639 716.175 625.999 604.33 511.393C545.442 451.051 572.709 390.705 679.898 372.492C618.575 382.913 549.637 365.694 530.722 298.183C525.279 278.763 516 159.154 516 142.993C516 62.0656 587.04 87.4981 630.881 120.368H630.885Z" fill="#61DAFB"/>
<path d="M596 315.805C596 280.731 552.031 247.491 484.62 226.879C500.177 158.242 493.263 103.634 462.798 86.1514C455.776 82.0505 447.565 80.1079 438.599 80.1079V104.174C443.568 104.174 447.565 105.145 450.914 106.98C465.607 115.398 471.98 147.45 467.011 188.675C465.823 198.82 463.878 209.504 461.501 220.404C440.327 215.223 417.209 211.23 392.902 208.64C378.318 188.675 363.193 170.545 347.961 154.68C383.179 121.981 416.236 104.066 438.707 104.066V80C408.998 80 370.107 101.152 330.784 137.845C291.461 101.368 252.57 80.4317 222.861 80.4317V104.498C245.223 104.498 278.389 122.305 313.607 154.788C298.483 170.653 283.358 188.675 268.99 208.64C244.575 211.23 221.457 215.223 200.283 220.511C197.798 209.72 195.961 199.251 194.665 189.215C189.587 147.989 195.853 115.937 210.437 107.412C213.678 105.469 217.892 104.606 222.861 104.606V80.5396C213.786 80.5396 205.576 82.4822 198.446 86.5831C168.089 104.066 161.283 158.566 176.948 226.987C109.753 247.707 66 280.839 66 315.805C66 350.879 109.969 384.118 177.38 404.73C161.823 473.367 168.737 527.975 199.202 545.458C206.224 549.559 214.435 551.501 223.509 551.501C253.218 551.501 292.109 530.349 331.432 493.656C370.755 530.133 409.647 551.07 439.355 551.07C448.43 551.07 456.64 549.127 463.77 545.026C494.127 527.543 500.933 473.044 485.268 404.623C552.247 384.01 596 350.771 596 315.805ZM455.344 243.822C451.346 257.744 446.377 272.097 440.759 286.45C436.33 277.817 431.685 269.183 426.607 260.55C421.638 251.916 416.345 243.498 411.051 235.296C426.391 237.563 441.192 240.369 455.344 243.822ZM405.865 358.757C397.439 373.326 388.797 387.14 379.83 399.982C363.733 401.385 347.421 402.14 331 402.14C314.687 402.14 298.375 401.385 282.386 400.09C273.419 387.247 264.669 373.542 256.243 359.08C248.032 344.943 240.578 330.59 233.772 316.128C240.47 301.667 248.032 287.206 256.135 273.068C264.561 258.499 273.203 244.686 282.17 231.843C298.267 230.44 314.579 229.685 331 229.685C347.313 229.685 363.625 230.44 379.614 231.735C388.581 244.578 397.331 258.283 405.757 272.745C413.968 286.882 421.422 301.235 428.228 315.697C421.422 330.158 413.968 344.619 405.865 358.757ZM440.759 344.727C446.593 359.188 451.563 373.65 455.668 387.679C441.516 391.133 426.607 394.046 411.159 396.313C416.453 388.003 421.746 379.477 426.715 370.736C431.685 362.102 436.33 353.361 440.759 344.727ZM331.216 459.877C321.169 449.517 311.122 437.97 301.183 425.343C310.906 425.775 320.845 426.099 330.892 426.099C341.047 426.099 351.094 425.883 360.925 425.343C351.202 437.97 341.155 449.517 331.216 459.877ZM250.841 396.313C235.501 394.046 220.7 391.241 206.548 387.787C210.545 373.865 215.515 359.512 221.132 345.159C225.562 353.792 230.207 362.426 235.285 371.06C240.362 379.693 245.547 388.111 250.841 396.313ZM330.676 171.732C340.723 182.092 350.77 193.639 360.709 206.266C350.986 205.834 341.047 205.511 331 205.511C320.845 205.511 310.798 205.726 300.967 206.266C310.69 193.639 320.737 182.092 330.676 171.732ZM250.733 235.296C245.439 243.606 240.146 252.132 235.177 260.873C230.207 269.507 225.562 278.141 221.132 286.774C215.299 272.313 210.329 257.852 206.224 243.822C220.376 240.477 235.285 237.563 250.733 235.296ZM152.965 370.412C114.722 354.116 89.9829 332.748 89.9829 315.805C89.9829 298.861 114.722 277.385 152.965 261.197C162.256 257.204 172.411 253.643 182.89 250.297C189.047 271.45 197.15 293.465 207.197 316.02C197.258 338.468 189.263 360.375 183.214 381.42C172.519 378.074 162.364 374.405 152.965 370.412ZM211.086 524.629C196.393 516.212 190.02 484.159 194.989 442.934C196.177 432.79 198.122 422.106 200.499 411.206C221.673 416.386 244.791 420.379 269.098 422.969C283.682 442.934 298.807 461.065 314.039 476.929C278.821 509.628 245.764 527.543 223.293 527.543C218.432 527.435 214.327 526.464 211.086 524.629ZM467.335 442.394C472.413 483.62 466.147 515.672 451.563 524.198C448.322 526.14 444.108 527.004 439.139 527.004C416.777 527.004 383.611 509.197 348.393 476.713C363.517 460.849 378.642 442.826 393.01 422.861C417.425 420.271 440.543 416.278 461.717 410.99C464.202 421.89 466.147 432.358 467.335 442.394ZM508.927 370.412C499.636 374.405 489.481 377.966 479.002 381.312C472.845 360.16 464.742 338.144 454.695 315.589C464.634 293.141 472.629 271.234 478.678 250.189C489.373 253.535 499.528 257.204 509.035 261.197C547.278 277.493 572.017 298.861 572.017 315.805C571.909 332.748 547.17 354.224 508.927 370.412Z" fill="#1185FE"/>
<path d="M330.892 365.124C358.158 365.124 380.262 343.043 380.262 315.805C380.262 288.566 358.158 266.485 330.892 266.485C303.626 266.485 281.522 288.566 281.522 315.805C281.522 343.043 303.626 365.124 330.892 365.124Z" fill="#1185FE"/>
</svg>
